<svg xmlns="http://www.w3.org/2000/svg" xml:space="preserve" id="quick-setup-product" x="0" y="0" style="enable-background:new 0 0 100 100" version="1.1" viewBox="0 0 100 100">
  <g>
    <path d="M91.101,37.592c-0.128-0.773-0.797-1.339-1.579-1.339H72.758c-0.505,0-0.982,0.239-1.283,0.645
		c-0.303,0.406-0.395,0.931-0.25,1.415c0.609,2.038,0.917,4.16,0.917,6.306c0,12.205-9.932,22.134-22.142,22.134
		c-12.205,0-22.134-9.93-22.134-22.134c0-2.143,0.309-4.265,0.917-6.307c0.145-0.484,0.052-1.009-0.25-1.414
		c-0.301-0.405-0.778-0.645-1.284-0.645H10.487c-0.779,0-1.446,0.562-1.578,1.33c-0.261,1.517-0.44,3.11-0.533,4.734
		c-0.025,0.443,0.134,0.876,0.44,1.197c0.831,0.871,1.27,1.334,2.093,2.204c0.302,0.32,0.723,0.501,1.163,0.501h4.463
		c0.535,0.447,0.981,0.821,1.514,1.272l0.023,0.131l0.02,0.114l0.9,5.106c-0.35,0.608-0.64,1.111-0.993,1.718l-4.195,1.531
		c-0.411,0.15-0.743,0.461-0.918,0.862l-1.216,2.785c-0.177,0.405-0.179,0.865-0.005,1.271c1.299,3.044,2.975,5.941,4.978,8.609
		c0.264,0.352,0.661,0.58,1.098,0.63l3.018,0.344c0.435,0.051,0.875-0.081,1.212-0.364l3.42-2.868h1.971
		c0.111,0.123,0.236,0.223,0.372,0.303l3.802,3.188c0.12,0.689,0.222,1.265,0.344,1.954l-2.23,3.865
		c-0.219,0.38-0.273,0.832-0.15,1.252l0.856,2.91c0.123,0.426,0.418,0.78,0.813,0.98c2.995,1.519,6.145,2.665,9.362,3.406
		c0.43,0.101,0.883,0.017,1.25-0.229c0.672-0.45,1.134-0.756,1.674-1.113l0.851-0.565c0.366-0.243,0.615-0.625,0.691-1.057
		l0.772-4.394c0.516-0.431,0.953-0.797,1.463-1.226c0.095,0.017,0.189,0.028,0.282,0.028c0.167,0,0.329-0.03,0.484-0.079h4.718
		c0.538,0.453,0.987,0.828,1.526,1.278l0.772,4.395c0.076,0.432,0.326,0.813,0.691,1.057l2.529,1.681
		c0.265,0.176,0.573,0.268,0.885,0.268c0.12,0,0.241-0.014,0.36-0.041c3.217-0.741,6.367-1.887,9.362-3.406
		c0.395-0.2,0.69-0.554,0.813-0.98l0.856-2.911c0.123-0.42,0.069-0.872-0.15-1.251l-2.231-3.867l0.32-1.815l0.007-0.004
		c0.282-0.156,0.497-0.386,0.637-0.651l3.545-2.973h1.982l3.419,2.868c0.338,0.283,0.776,0.414,1.212,0.364l3.017-0.344
		c0.437-0.05,0.834-0.278,1.098-0.63c2.005-2.671,3.681-5.568,4.979-8.61c0.173-0.406,0.171-0.866-0.006-1.271l-1.217-2.785
		c-0.175-0.402-0.507-0.713-0.918-0.863l-4.198-1.529l-0.906-1.577c0.115-0.31,0.128-0.632,0.055-0.932l0.799-4.559
		c0.537-0.452,0.983-0.826,1.521-1.274h4.463c0.44,0,0.861-0.181,1.163-0.501l2.09-2.21c0.3-0.318,0.457-0.745,0.435-1.182
		C91.546,40.799,91.37,39.207,91.101,37.592z M81.868,43.389c-0.915,0.763-1.509,1.26-2.424,2.031
		c-0.288,0.242-0.481,0.578-0.546,0.949l-1.101,6.286l-2.054,5.357c-0.317,0.826,0.096,1.751,0.922,2.068
		c0.188,0.072,0.382,0.106,0.573,0.106c0.643,0,1.251-0.391,1.494-1.028l0.902-2.354c0.186,0.252,0.427,0.459,0.724,0.568
		l4.102,1.494l0.662,1.515c-1.063,2.37-2.377,4.641-3.914,6.767l-1.642,0.187l-3.339-2.8c-0.288-0.242-0.653-0.374-1.029-0.374
		h-3.147c-0.376,0-0.74,0.132-1.029,0.374l-4.804,4.029l-5.087,2.818c-0.774,0.428-1.054,1.403-0.625,2.176
		c0.292,0.527,0.838,0.826,1.402,0.826c0.262,0,0.528-0.065,0.774-0.201l2.176-1.206c-0.025,0.321,0.041,0.644,0.203,0.925
		l2.179,3.776l-0.466,1.585c-2.37,1.15-4.838,2.048-7.354,2.677l-1.376-0.915l-0.755-4.295c-0.065-0.372-0.261-0.711-0.552-0.953
		c-0.91-0.759-1.501-1.254-2.411-2.02c-0.288-0.243-0.653-0.376-1.031-0.376h-6.038l-5.912-1.149
		c-0.873-0.168-1.708,0.399-1.877,1.266c-0.169,0.868,0.398,1.709,1.266,1.877l2.455,0.477c-0.247,0.235-0.417,0.541-0.476,0.878
		l-0.754,4.294l-0.276,0.183c-0.374,0.248-0.71,0.47-1.103,0.732c-2.514-0.629-4.982-1.527-7.351-2.677l-0.466-1.585l2.178-3.776
		c0.188-0.327,0.256-0.709,0.189-1.081l-0.046-0.261c-0.182-1.023-0.312-1.751-0.496-2.826c-0.064-0.374-0.259-0.713-0.549-0.957
		l-4.448-3.729l-3.956-4.882c-0.557-0.688-1.566-0.793-2.252-0.236c-0.687,0.557-0.792,1.565-0.236,2.252l1.607,1.983
		c-0.358,0.011-0.703,0.139-0.979,0.369l-3.34,2.801l-1.642-0.187c-1.536-2.123-2.85-4.394-3.914-6.767l0.662-1.516l4.095-1.494
		c0.352-0.128,0.647-0.376,0.836-0.699c0.602-1.036,0.987-1.702,1.581-2.737c0.187-0.326,0.253-0.706,0.188-1.075l-0.991-5.619
		l0.087-4.851c0.016-0.884-0.689-1.614-1.572-1.629c-0.908-0.048-1.614,0.688-1.63,1.572l-0.019,1.045
		c-0.285-0.231-0.639-0.359-1.006-0.359h-4.354c-0.406-0.428-0.736-0.777-1.144-1.204c0.059-0.799,0.141-1.587,0.244-2.358h13.333
		c-0.353,1.694-0.531,3.423-0.531,5.163c0,13.971,11.366,25.336,25.336,25.336c13.974,0,25.344-11.366,25.344-25.336
		c0-1.742-0.178-3.471-0.531-5.163h13.329c0.107,0.799,0.188,1.587,0.243,2.358l-1.139,1.204h-4.353
		C82.519,43.018,82.156,43.149,81.868,43.389z M50,64.436c11.277,0,20.451-9.175,20.451-20.451c0-4.113-1.225-7.944-3.323-11.155
		l1.479-1.888c0.467-0.597,0.675-1.34,0.583-2.093c-0.091-0.752-0.47-1.424-1.067-1.892l-3.708-2.903
		c-0.596-0.468-1.339-0.673-2.092-0.584c-0.754,0.091-1.425,0.471-1.892,1.067l-1.018,1.3c-1.491-0.777-3.088-1.373-4.765-1.765
		c0.454-0.681,1.155-1.425,1.621-1.917l0.081-0.085c0.563-0.595,0.863-1.407,0.824-2.229l-0.123-2.505
		c-0.029-0.588-0.378-1.113-0.91-1.367c-3.444-1.643-8.84-1.643-12.284,0c-0.531,0.254-0.881,0.779-0.91,1.367l-0.123,2.505
		c-0.039,0.821,0.261,1.633,0.824,2.229l0.081,0.085c0.466,0.492,1.167,1.236,1.621,1.917c-1.676,0.392-3.274,0.988-4.765,1.765
		l-1.018-1.299c-0.467-0.597-1.139-0.977-1.893-1.068c-0.751-0.091-1.496,0.117-2.092,0.583l-3.708,2.905
		c-0.597,0.467-0.976,1.139-1.068,1.892c-0.091,0.752,0.116,1.495,0.584,2.093l1.479,1.888c-2.098,3.211-3.323,7.041-3.323,11.155
		C29.549,55.261,38.724,64.436,50,64.436z M34.138,29.255l3.135-2.455l0.582,0.742c-1.073,0.794-2.066,1.69-2.963,2.674
		L34.138,29.255z M47.886,22.104c0.676-0.102,1.391-0.158,2.115-0.158c0.884,0,1.601-0.717,1.601-1.601
		c0-0.884-0.717-1.601-1.601-1.601c-1.385,0-2.723,0.158-3.937,0.459l0.034-0.686c2.307-0.772,5.5-0.772,7.808,0l0.069,1.409
		l-0.028,0.029c-0.937,0.989-2.093,2.219-2.634,3.627c-0.434-0.027-0.87-0.047-1.311-0.047c-0.441,0-0.877,0.019-1.312,0.047
		C48.49,23.063,48.21,22.57,47.886,22.104z M41.957,28.737c1.46-0.773,3.042-1.344,4.711-1.673c1.079-0.212,2.192-0.329,3.332-0.329
		c1.14,0,2.253,0.118,3.332,0.329c1.67,0.328,3.251,0.899,4.711,1.673c2.191,1.161,4.093,2.782,5.598,4.73
		c2.252,2.915,3.607,6.556,3.607,10.517c0,9.511-7.737,17.249-17.249,17.249s-17.249-7.738-17.249-17.249
		c0-3.961,1.355-7.602,3.607-10.517C37.864,31.52,39.766,29.898,41.957,28.737z M62.727,26.8l3.135,2.455l-0.753,0.961
		c-0.898-0.984-1.891-1.88-2.963-2.674L62.727,26.8z M49.645,59.614c0.126,0.032,0.256,0.054,0.392,0.054
		c0.141,0,0.276-0.024,0.406-0.059c8.243-0.232,14.898-6.857,15.179-15.088c0.06-0.169,0.099-0.348,0.099-0.537
		c0-0.19-0.038-0.368-0.099-0.537c-0.282-8.23-6.937-14.857-15.179-15.088c-0.13-0.034-0.265-0.058-0.406-0.058
		c-0.136,0-0.266,0.022-0.392,0.054c-8.463,0.191-15.293,7.122-15.293,15.63C34.352,52.493,41.182,59.423,49.645,59.614z
		 M48.435,31.648v0.463c0,0.884,0.717,1.601,1.601,1.601c0.884,0,1.601-0.717,1.601-1.601v-0.452
		c5.565,0.736,9.974,5.155,10.694,10.724H61.91c-0.884,0-1.601,0.717-1.601,1.601c0,0.884,0.717,1.601,1.601,1.601h0.422
		c-0.72,5.57-5.129,9.989-10.694,10.724v-0.452c0-0.884-0.717-1.601-1.601-1.601c-0.884,0-1.601,0.717-1.601,1.601v0.463
		c-5.599-0.707-10.043-5.141-10.766-10.735h0.494c0.884,0,1.601-0.717,1.601-1.601c0-0.884-0.717-1.601-1.601-1.601h-0.494
		C38.393,36.79,42.836,32.355,48.435,31.648z M50,48.485c1.112,0,2.13-0.408,2.916-1.079l4.917,2.692
		c0.244,0.134,0.507,0.197,0.767,0.197c0.566,0,1.115-0.301,1.406-0.832c0.425-0.776,0.141-1.749-0.636-2.174l-4.917-2.691
		c0.028-0.201,0.047-0.404,0.047-0.613c0-2.481-2.019-4.5-4.5-4.5c-2.482,0-4.5,2.019-4.5,4.5C45.5,46.466,47.519,48.485,50,48.485z
		 M50,45.283c-0.715,0-1.298-0.583-1.298-1.298c0-0.716,0.583-1.298,1.298-1.298c0.715,0,1.297,0.582,1.297,1.298
		C51.298,44.7,50.715,45.283,50,45.283z M12.989,33.051c0-0.884,0.717-1.601,1.601-1.601H27.25c0.884,0,1.601,0.717,1.601,1.601
		c0,0.884-0.717,1.601-1.601,1.601H14.59C13.706,34.652,12.989,33.936,12.989,33.051z M71.157,33.051
		c0-0.884,0.717-1.601,1.601-1.601H86.32c0.884,0,1.601,0.717,1.601,1.601c0,0.884-0.717,1.601-1.601,1.601H72.758
		C71.874,34.652,71.157,33.936,71.157,33.051z"></path>
  </g>
</svg>
