<svg xmlns="http://www.w3.org/2000/svg" xml:space="preserve" style="enable-background:new 0 0 512 512" viewBox="0 0 512 512" id="cnc-machine">
  <g id="_x30_5_Cnc_Machine">
    <g>
      <path d="M12.117,441.158c0.915,1.093,2.266,1.724,3.687,1.724h80.377c1.975,0,3.748-1.208,4.471-3.045l14.726-37.425h281.273
			l27.046,38.431c0.896,1.278,2.364,2.038,3.927,2.038h68.573c1.426,0,2.782-0.633,3.692-1.731c0.915-1.098,1.29-2.543,1.032-3.948
			l-27.477-148.482c11.065-1.363,19.689-10.714,19.689-22.14c0-10.972-7.935-20.087-18.362-22.005v-99.27
			c0-21.864-17.79-39.653-39.651-39.653c-2.655,0-4.804,2.151-4.804,4.804v6.716H302.628c-0.726-7.6-6.999-13.579-14.75-13.736
			V85.304c0-8.925-7.262-16.185-16.185-16.185h-31.197c-8.923,0-16.185,7.26-16.185,16.185v18.133
			c-7.748,0.16-14.024,6.137-14.75,13.735H89.182v-6.716c0-2.653-2.149-4.804-4.804-4.804c-21.862,0-39.651,17.79-39.651,39.653
			v98.86h-3.439c-12.362,0-22.415,10.056-22.415,22.415c0,11.182,8.254,20.398,18.977,22.067L11.076,437.226
			C10.822,438.627,11.207,440.067,12.117,441.158z M439.924,115.645c14.29,2.306,25.239,14.728,25.239,29.661v98.86h-25.239
			C439.924,238.726,439.924,109.917,439.924,115.645z M89.182,244.166v-79.72h120.234v0.063c0,8.383,6.821,15.202,15.205,15.202
			h10.931v29.297c0,11.327,9.214,20.541,20.543,20.541s20.543-9.214,20.543-20.541v-29.297h10.935c8.383,0,15.2-6.819,15.2-15.202
			v-0.063h127.543v79.72H89.182z M245.159,179.712h21.871v29.297c0,6.028-4.907,10.933-10.936,10.933
			c-6.028,0-10.935-4.905-10.935-10.933V179.712z M430.317,154.838H302.773V126.78h127.543V154.838z M233.919,85.304
			c0-3.626,2.951-6.577,6.577-6.577h31.197c3.626,0,6.577,2.951,6.577,6.577v18.102h-44.352V85.304z M219.024,118.607
			c0-3.085,2.51-5.594,5.597-5.594c31.614,0,45.684,0,62.953,0c3.082,0,5.592,2.51,5.592,5.594v45.902
			c0,3.085-2.51,5.594-5.592,5.594c-1.281,0-63.439,0-62.953,0c-3.087,0-5.597-2.51-5.597-5.594V118.607z M209.416,126.78v28.059
			H89.182V126.78H209.416z M54.334,145.306c0-14.933,10.95-27.355,25.239-29.661c0,45.821,0,83.007,0,128.521H54.334V145.306z
			 M28.48,266.581c0-7.063,5.747-12.807,12.807-12.807c106.23,0,323.228,0,429.431,0c7.06,0,12.807,5.745,12.807,12.807
			s-5.747,12.807-12.807,12.807c-137.9,0-294.613,0-429.431,0C34.227,279.389,28.48,273.644,28.48,266.581z M47.551,288.996h416.173
			l26.698,144.277H430.12l-27.046-38.431c-0.896-1.278-2.364-2.038-3.927-2.038H112.108c-1.975,0-3.748,1.208-4.471,3.045
			l-14.726,37.425h-71.36L47.551,288.996z"></path>
      <path d="M121.739 344.239c0-15.141-12.319-27.458-27.458-27.458s-27.458 12.317-27.458 27.458c0 15.141 12.319 27.458 27.458 27.458S121.739 359.381 121.739 344.239zM76.431 344.239c0-9.842 8.008-17.85 17.851-17.85s17.851 8.008 17.851 17.85c0 9.842-8.008 17.851-17.851 17.851S76.431 354.082 76.431 344.239zM166.321 371.698c15.139 0 27.458-12.317 27.458-27.458 0-15.141-12.319-27.458-27.458-27.458-15.144 0-27.463 12.317-27.463 27.458C138.858 359.381 151.178 371.698 166.321 371.698zM166.321 326.389c9.842 0 17.851 8.008 17.851 17.85 0 9.842-8.008 17.851-17.851 17.851-9.847 0-17.855-8.008-17.855-17.851C148.466 334.397 156.474 326.389 166.321 326.389zM238.357 371.698c15.139 0 27.458-12.317 27.458-27.458 0-15.141-12.319-27.458-27.458-27.458-15.139 0-27.458 12.317-27.458 27.458C210.898 359.381 223.218 371.698 238.357 371.698zM238.357 326.389c9.842 0 17.851 8.008 17.851 17.85 0 9.842-8.008 17.851-17.851 17.851-9.842 0-17.851-8.008-17.851-17.851C220.506 334.397 228.514 326.389 238.357 326.389zM289.215 349.043h151.159c2.655 0 4.804-2.151 4.804-4.804 0-2.653-2.149-4.804-4.804-4.804H289.215c-2.655 0-4.804 2.151-4.804 4.804C284.411 346.892 286.56 349.043 289.215 349.043z"></path>
    </g>
  </g>
</svg>
