<svg xmlns="http://www.w3.org/2000/svg" viewBox="0 0 64 64" id="gear">
  <g>
    <g id="Outline">
      <g>
        <path d="M56.07129,38.00244l-1.75244-.125c-.19189-.57666-.42334-1.13623-.69141-1.6748l1.14941-1.32617c.34326-.39648.32227-.99072-.04883-1.36182l-4.24268-4.24268c-.37061-.37061-.96533-.3916-1.36182-.04834l-1.32617,1.14893c-.53857-.26807-1.09863-.49951-1.6748-.69141l-.125-1.75244c-.0376-.52344-.47314-.92871-.99756-.92871h-6c-.52441,0-.95996.40527-.99756.92871l-.125,1.75244c-.57617.19189-1.13623.42334-1.6748.69141l-1.32617-1.14893c-.01917-.01666-.0835-.08093-.1001-.1001l-1.14893-1.32617c.26807-.53857.49951-1.09863.69141-1.6748l1.75244-.125c.52344-.0376.92871-.47314.92871-.99756v-6c0-.52441-.40527-.95996-.92871-.99756l-1.75244-.125c-.19189-.57617-.42334-1.13623-.69141-1.6748l1.14893-1.32617c.34375-.396.32275-.99072-.04834-1.36182l-4.24268-4.24268c-.37012-.37158-.96533-.3916-1.36182-.04834l-1.32617,1.14893c-.53857-.26807-1.09863-.49951-1.6748-.69141l-.125-1.75244c-.0376-.52344-.47314-.92871-.99756-.92871h-6c-.52441,0-.95996.40527-.99756.92871l-.125,1.75244c-.57617.19189-1.13623.42334-1.6748.69141l-1.32617-1.14893c-.39502-.34326-.99072-.32324-1.36182.04834l-4.24268,4.24268c-.37109.37109-.39209.96582-.04834,1.36182l1.14893,1.32617c-.26807.53857-.49951,1.09863-.69141,1.6748l-1.75244.125c-.52344.0376-.92871.47314-.92871.99756v6c0,.52441.40527.95996.92871.99756l1.75244.125c.19189.57617.42334,1.13623.69141,1.6748l-1.14893,1.32617c-.34375.396-.32275.99072.04834,1.36182l4.24268,4.24268c.37109.37256.9668.39258,1.36182.04834l1.32617-1.14893c.53857.26807,1.09863.49951,1.6748.69141l.125,1.75244c.0376.52344.47314.92871.99756.92871h6c.52441,0,.95996-.40527.99756-.92871l.125-1.75244c.57617-.19189,1.13623-.42334,1.6748-.69141l1.32617,1.14893c.01898.01648.08295.08081.09961.1001l1.14941,1.32617c-.26807.53857-.49951,1.09814-.69141,1.6748l-1.75244.125c-.52344.0376-.92871.47314-.92871.99756v6c0,.52441.40527.95996.92871.99756l1.75244.125c.19189.57617.42334,1.13623.69141,1.6748l-1.14893,1.32617c-.34375.396-.32275.99072.04834,1.36182l4.24268,4.24268c.37207.37207.9668.39307,1.36182.04834l1.32617-1.14893c.53857.26807,1.09863.49951,1.6748.69141l.125,1.75244c.0376.52344.47314.92871.99756.92871h6c.52441,0,.95996-.40527.99756-.92871l.125-1.75244c.57617-.19189,1.13623-.42334,1.6748-.69141l1.32617,1.14893c.39648.34473.99121.32373,1.36182-.04834l4.24268-4.24268c.37109-.37109.39209-.96582.04834-1.36182l-1.14893-1.32617c.26807-.53857.49951-1.09863.69141-1.6748l1.75244-.125c.52344-.0376.92871-.47314.92871-.99756v-6c0-.52441-.40527-.95996-.92871-.99756ZM27.43799,31.55322c-.78662.44873-1.63721.80029-2.52783,1.04443-.40918.11182-.70312.47021-.7334.89307l-.10791,1.50928h-4.1377l-.10791-1.50928c-.03027-.42285-.32422-.78125-.7334-.89307-.89062-.24414-1.74121-.5957-2.52783-1.04443-.36914-.21045-.83008-.16553-1.15039.11328l-1.14111.98877-2.92578-2.92578.98877-1.14111c.27832-.32031.32373-.78174.11328-1.15039-.44873-.78662-.80029-1.63721-1.04443-2.52783-.11182-.40918-.47021-.70312-.89307-.7334l-1.50928-.10791v-4.1377l1.50928-.10791c.42285-.03027.78125-.32422.89307-.7334.24414-.89062.5957-1.74121,1.04443-2.52783.21045-.36865.16504-.83008-.11328-1.15039l-.98877-1.14111,2.92578-2.92578,1.14111.98877c.3208.27881.78125.32373,1.15039.11328.78662-.44873,1.63721-.80029,2.52783-1.04443.40918-.11182.70312-.47021.7334-.89307l.10791-1.50928h4.1377l.10791,1.50928c.03027.42285.32422.78125.7334.89307.89062.24414,1.74121.5957,2.52783,1.04443.36816.20947.82959.16455,1.15039-.11328l1.14111-.98877,2.92578,2.92578-.98877,1.14111c-.27832.32031-.32373.78174-.11328,1.15039.44873.78662.80029,1.63721,1.04443,2.52783.11182.40918.47021.70312.89307.7334l1.50928.10791v4.1377l-1.50928.10791c-.42285.03027-.78125.32422-.89307.7334-.24414.89062-.5957,1.74121-1.04443,2.52783-.21045.36865-.16504.83008.11328,1.15039l.98877,1.14111-2.92578,2.92578-1.14111-.98877c-.32031-.27783-.78125-.32227-1.15039-.11328ZM55,44.06885l-1.50928.10791c-.42285.03027-.78125.32422-.89307.7334-.24414.89062-.5957,1.74121-1.04443,2.52783-.21045.36865-.16504.83008.11328,1.15039l.98877,1.14111-2.92578,2.92578-1.14111-.98877c-.32031-.27832-.78076-.32178-1.15039-.11328-.78662.44873-1.63721.80029-2.52783,1.04443-.40918.11182-.70312.47021-.7334.89307l-.10791,1.50928h-4.1377l-.10791-1.50928c-.03027-.42285-.32422-.78125-.7334-.89307-.89062-.24414-1.74121-.5957-2.52783-1.04443-.36963-.20996-.83057-.16602-1.15039.11328l-1.14111.98877-2.92578-2.92578.98877-1.14111c.27832-.32031.32373-.78174.11328-1.15039-.44873-.78662-.80029-1.63721-1.04443-2.52783-.11182-.40918-.47021-.70312-.89307-.7334l-1.50928-.10791v-4.1377l1.50928-.10791c.42285-.03027.78125-.32422.89307-.7334.24414-.89062.5957-1.74121,1.04443-2.52734.21045-.36865.16504-.82959-.11279-1.15039l-.98926-1.1416,2.92578-2.92578,1.14111.98877c.3208.2793.78174.32324,1.15039.11328.78662-.44873,1.63721-.80029,2.52783-1.04443.40918-.11182.70312-.47021.7334-.89307l.10791-1.50928h4.1377l.10791,1.50928c.03027.42285.32422.78125.7334.89307.89062.24414,1.74121.5957,2.52783,1.04443.36865.2085.8291.16504,1.15039-.11328l1.14111-.98877,2.92578,2.92578-.98926,1.1416c-.27783.3208-.32324.78174-.11279,1.15039.44873.78613.80029,1.63672,1.04443,2.52734.11182.40918.47021.70312.89307.7334l1.50928.10791v4.1377Z"></path>
        <path d="M24.25,13.28174c-.53711-.13818-1.08057.18408-1.21826.71826-.13818.53516.18359,1.08008.71826,1.21826,3.09131.79736,5.25,3.58643,5.25,6.78174,0,3.85986-3.14014,7-7,7s-7-3.14014-7-7c0-3.19531,2.15869-5.98438,5.25-6.78174.53467-.13818.85645-.68311.71826-1.21826-.1377-.53418-.68164-.85645-1.21826-.71826-3.97412,1.02539-6.75,4.61035-6.75,8.71826,0,4.9624,4.0376,9,9,9s9-4.0376,9-9c0-4.10791-2.77588-7.69287-6.75-8.71826Z"></path>
        <path d="M17 22c0 2.75684 2.24316 5 5 5s5-2.24316 5-5-2.24316-5-5-5-5 2.24316-5 5ZM22 19c1.6543 0 3 1.3457 3 3s-1.3457 3-3 3-3-1.3457-3-3 1.3457-3 3-3ZM48.78174 40.25c.13818.53418.68262.85596 1.21826.71826.53467-.13818.85645-.68311.71826-1.21826-1.02539-3.97412-4.61035-6.75-8.71826-6.75-4.9624 0-9 4.0376-9 9s4.0376 9 9 9c4.10791 0 7.69287-2.77588 8.71826-6.75.13818-.53516-.18359-1.08008-.71826-1.21826-.53564-.13623-1.08057.18359-1.21826.71826-.79736 3.09131-3.58643 5.25-6.78174 5.25-3.85986 0-7-3.14014-7-7s3.14014-7 7-7c3.19531 0 5.98438 2.15869 6.78174 5.25Z"></path>
        <path d="M37 42c0 2.75684 2.24316 5 5 5s5-2.24316 5-5-2.24316-5-5-5-5 2.24316-5 5ZM45 42c0 1.6543-1.3457 3-3 3s-3-1.3457-3-3 1.3457-3 3-3 3 1.3457 3 3ZM39.20654 19.77002l2.00928 3.46387c.25244.43506.78711.61572 1.25244.41992l1.79492-.75342c.17383.11133.35107.21387.53076.30811l.24072 1.91602c.06299.50049.48828.87549.99219.87549h4.01807c.50391 0 .9292-.375.99219-.87549l.24072-1.91602c.17969-.09424.35693-.19678.53076-.30811l1.79492.75342c.46289.1958.99951.01514 1.25244-.41992l2.00928-3.46387c.25342-.43799.14062-.99609-.26318-1.30078l-1.54688-1.16553c.00488-.10059.00781-.20166.00781-.30371s-.00293-.20312-.00781-.30371l1.54688-1.16553c.40381-.30469.5166-.86279.26318-1.30078l-2.00928-3.46387c-.25293-.43555-.78955-.61621-1.25244-.41992l-1.79492.75342c-.17383-.11133-.35107-.21387-.53076-.30811l-.24072-1.91602c-.06299-.50049-.48828-.87549-.99219-.87549h-4.01807c-.50391 0-.9292.375-.99219.87549l-.24072 1.91602c-.17969.09424-.35693.19678-.53076.30811l-1.79492-.75342c-.46533-.19629-1-.01562-1.25244.41992l-2.00928 3.46387c-.25342.43799-.14062.99609.26318 1.30078l1.54688 1.16553c-.00488.10059-.00781.20166-.00781.30371s.00293.20312.00781.30371l-1.54688 1.16553c-.40381.30469-.5166.86279-.26318 1.30078ZM43.00879 17c0-.21777.01953-.42969.04639-.64014.0459-.35645-.10303-.70947-.38965-.92578l-1.28369-.96729 1.12305-1.93604 1.49121.62598c.3291.13867.70752.09033.99219-.12549.354-.26904.72852-.48633 1.11328-.64648.33154-.1377.56348-.44238.6084-.79883l.19922-1.58594h2.25342l.19922 1.58594c.04492.35645.27686.66113.6084.79883.38477.16016.75928.37744 1.11328.64648.28369.21582.66211.26318.99219.12549l1.49121-.62598 1.12305 1.93604-1.28369.96729c-.28662.21631-.43555.56934-.38965.92578.02686.21045.04639.42236.04639.64014s-.01953.42969-.04639.64014c-.0459.35645.10303.70947.38965.92578l1.28369.96729-1.12305 1.93604-1.49121-.62598c-.32959-.13721-.70752-.09082-.99219.12549-.354.26904-.72852.48633-1.11328.64648-.33154.1377-.56348.44238-.6084.79883l-.19922 1.58594h-2.25342l-.19922-1.58594c-.04492-.35645-.27686-.66113-.6084-.79883-.38477-.16016-.75928-.37744-1.11328-.64648-.28516-.21631-.66357-.26367-.99219-.12549l-1.49121.62598-1.12305-1.93604 1.28369-.96729c.28662-.21631.43555-.56934.38965-.92578-.02686-.21045-.04639-.42236-.04639-.64014Z"></path>
        <path d="M48 20c1.6543 0 3-1.3457 3-3s-1.3457-3-3-3-3 1.3457-3 3 1.3457 3 3 3ZM48 16c.55127 0 1 .44873 1 1s-.44873 1-1 1-1-.44873-1-1 .44873-1 1-1ZM24.79346 44.22998l-2.00928-3.46387c-.25293-.43555-.78955-.61621-1.25244-.41992l-1.79492.75342c-.17383-.11133-.35107-.21387-.53076-.30811l-.24072-1.91602c-.06299-.50049-.48828-.87549-.99219-.87549h-4.01807c-.50391 0-.9292.375-.99219.87549l-.24072 1.91602c-.17969.09424-.35693.19678-.53076.30811l-1.79492-.75342c-.46533-.19629-1.00049-.01562-1.25244.41992l-2.00928 3.46387c-.25342.43799-.14062.99609.26318 1.30078l1.54688 1.16553c-.00488.10059-.00781.20166-.00781.30371s.00293.20312.00781.30371l-1.54688 1.16553c-.40381.30469-.5166.86279-.26318 1.30078l2.00928 3.46387c.25195.43506.78711.61572 1.25244.41992l1.79492-.75342c.17383.11133.35107.21387.53076.30811l.24072 1.91602c.06299.50049.48828.87549.99219.87549h4.01807c.50391 0 .9292-.375.99219-.87549l.24072-1.91602c.17969-.09424.35693-.19678.53076-.30811l1.79492.75342c.46289.1958.99951.01514 1.25244-.41992l2.00928-3.46387c.25342-.43799.14062-.99609-.26318-1.30078l-1.54688-1.16553c.00488-.10059.00781-.20166.00781-.30371s-.00293-.20312-.00781-.30371l1.54688-1.16553c.40381-.30469.5166-.86279.26318-1.30078ZM20.99121 47c0 .21777-.01953.42969-.04639.64014-.0459.35645.10303.70947.38965.92578l1.28369.96729-1.12305 1.93604-1.49121-.62598c-.3291-.13867-.70752-.09082-.99219.12549-.354.26904-.72852.48633-1.11328.64648-.33154.1377-.56348.44238-.6084.79883l-.19922 1.58594h-2.25342l-.19922-1.58594c-.04492-.35645-.27686-.66113-.6084-.79883-.38477-.16016-.75928-.37744-1.11328-.64648-.28516-.2168-.66357-.26465-.99219-.12549l-1.49121.62598-1.12305-1.93604 1.28369-.96729c.28662-.21631.43555-.56934.38965-.92578-.02686-.21045-.04639-.42236-.04639-.64014s.01953-.42969.04639-.64014c.0459-.35645-.10303-.70947-.38965-.92578l-1.28369-.96729 1.12305-1.93604 1.49121.62598c.3291.13867.70752.09082.99219-.12549.354-.26904.72852-.48633 1.11328-.64648.33154-.1377.56348-.44238.6084-.79883l.19922-1.58594h2.25342l.19922 1.58594c.04492.35645.27686.66113.6084.79883.38477.16016.75928.37744 1.11328.64648.28369.21533.66211.26318.99219.12549l1.49121-.62598 1.12305 1.93604-1.28369.96729c-.28662.21631-.43555.56934-.38965.92578.02686.21045.04639.42236.04639.64014Z"></path>
        <path d="M16,44c-1.6543,0-3,1.3457-3,3s1.3457,3,3,3,3-1.3457,3-3-1.3457-3-3-3ZM16,48c-.55127,0-1-.44873-1-1s.44873-1,1-1,1,.44873,1,1-.44873,1-1,1Z"></path>
      </g>
    </g>
  </g>
</svg>
